P3
10 10
255
192
192
192
153
153
184
153
153
184
153
153
184
153
153
184
153
153
184
192
192
192
192
192
192
192
192
192
192
192
192
153
153
184
115
115
176
115
115
176
115
115
176
115
115
176
153
153
184
192
192
192
192
192
192
192
192
192
192
192
192
115
115
176
76
76
168
76
76
168
76
76
168
76
76
168
115
115
176
144
144
182
128
128
179
96
96
172
192
192
192
0
0
153
0
0
153
38
38
160
76
76
168
115
115
176
115
115
176
144
144
182
128
128
179
96
96
172
0
0
153
0
0
153
0
0
153
38
38
160
76
76
168
115
115
176
115
115
176
144
144
182
128
128
179
96
96
172
0
0
153
0
0
153
0
0
153
38
38
160
76
76
168
115
115
176
115
115
176
144
144
182
128
128
179
96
96
172
0
0
153
0
0
153
0
0
153
38
38
160
76
76
168
115
115
176
115
115
176
144
144
182
128
128
179
96
96
172
0
0
153
115
115
176
76
76
168
76
76
168
76
76
168
76
76
168
115
115
176
144
144
182
128
128
179
96
96
172
192
192
192
153
153
184
115
115
176
115
115
176
115
115
176
115
115
176
153
153
184
192
192
192
192
192
192
192
192
192
192
192
192
192
192
192
153
153
184
153
153
184
153
153
184
153
153
184
153
153
184
192
192
192
192
192
192
192
192
192
192
192
192
